<?xml version="1.0" standalone="no"?>
<!DOCTYPE svg PUBLIC "-//W3C//DTD SVG 20010904//EN"
 "http://www.w3.org/TR/2001/REC-SVG-20010904/DTD/svg10.dtd">
<svg version="1.0" xmlns="http://www.w3.org/2000/svg"
 width="668.000000pt" height="668.000000pt" viewBox="0 0 668.000000 668.000000"
 preserveAspectRatio="xMidYMid meet">
<metadata>
Created by potrace 1.11, written by Peter Selinger 2001-2013
</metadata>
<g transform="translate(0.000000,668.000000) scale(0.100000,-0.100000)"
fill="#000000" stroke="none">
<path d="M3445 6173 c-138 -153 -431 -369 -830 -613 -66 -40 -139 -85 -162
-99 -23 -14 -130 -80 -238 -146 -340 -208 -736 -477 -880 -597 -11 -9 -40 -33
-65 -53 -124 -100 -328 -294 -433 -412 -160 -180 -310 -422 -396 -637 -31 -77
-85 -267 -95 -336 -3 -19 -8 -46 -11 -59 -25 -126 -23 -402 6 -566 24 -140
103 -380 157 -480 153 -280 302 -461 520 -628 85 -65 235 -157 309 -188 27
-11 62 -26 78 -34 98 -42 277 -88 393 -101 29 -3 63 -7 75 -10 29 -6 253 -5
297 1 142 21 186 29 270 52 312 82 588 244 839 492 l108 106 -13 -60 c-40
-185 -131 -349 -277 -499 -142 -145 -339 -265 -527 -321 -85 -25 -104 -30
-170 -41 -43 -7 -46 -10 -29 -26 96 -91 342 -173 564 -188 141 -10 522 -1 601
14 10 2 42 7 69 10 100 14 122 17 240 41 146 30 306 74 440 122 146 52 407
183 508 256 84 61 171 136 165 143 -2 1 -38 5 -81 8 -267 18 -481 121 -640
306 -90 106 -172 300 -192 460 l-7 54 29 -34 c42 -50 146 -148 205 -192 257
-194 599 -263 949 -193 13 3 36 7 51 10 15 3 73 21 128 41 476 169 824 612
877 1119 16 145 -1 440 -33 597 -2 13 -7 39 -10 58 -3 19 -8 38 -10 41 -2 3
-6 19 -8 35 -24 130 -90 323 -171 504 -66 147 -126 255 -218 395 -314 474
-759 883 -1357 1247 -41 25 -97 58 -125 73 -27 15 -77 43 -110 62 -170 95
-694 336 -724 332 -3 0 -33 -30 -66 -66z"/>
</g>
</svg>
